<svg width="23" height="22" viewBox="0 0 23 22" fill="none" xmlns="http://www.w3.org/2000/svg">
<path d="M7.18359 12.8063L8.31405 13.9368L10.3906 11.8683V21.6255H11.994V11.8683L14.0706 13.9368L15.201 12.8063L11.1923 8.79761L7.18359 12.8063Z" fill="#0118E8"/>
<path d="M17.2045 16.0134H16.8036V14.4099H17.2045C18.1613 14.4481 19.0942 14.1047 19.7978 13.4552C20.5015 12.8057 20.9183 11.9032 20.9566 10.9463C20.9949 9.98949 20.6515 9.05661 20.0019 8.35295C19.3524 7.64928 18.4499 7.23247 17.4931 7.19419H16.8036L16.7234 6.53676C16.5455 5.18699 15.8831 3.94789 14.8594 3.0503C13.8358 2.1527 12.5208 1.6578 11.1593 1.6578C9.79787 1.6578 8.48285 2.1527 7.45921 3.0503C6.43556 3.94789 5.7731 5.18699 5.59523 6.53676L5.5792 7.19419H4.8897C3.93284 7.23247 3.03038 7.64928 2.38084 8.35295C1.7313 9.05661 1.3879 9.98949 1.42617 10.9463C1.46445 11.9032 1.88126 12.8057 2.58493 13.4552C3.28859 14.1047 4.22147 14.4481 5.17832 14.4099H5.5792V16.0134H5.17832C3.89266 16.0052 2.65538 15.5221 1.70437 14.6569C0.753355 13.7917 0.155746 12.6054 0.0264362 11.3263C-0.102874 10.0471 0.245243 8.76527 1.00386 7.72723C1.76247 6.6892 2.87803 5.96824 4.13606 5.70295C4.48218 4.08866 5.37141 2.64188 6.65538 1.60402C7.93936 0.566164 9.54041 0 11.1914 0C12.8424 0 14.4434 0.566164 15.7274 1.60402C17.0114 2.64188 17.9006 4.08866 18.2467 5.70295C19.5047 5.96824 20.6203 6.6892 21.3789 7.72723C22.1375 8.76527 22.4857 10.0471 22.3563 11.3263C22.227 12.6054 21.6294 13.7917 20.6784 14.6569C19.7274 15.5221 18.4901 16.0052 17.2045 16.0134Z" fill="#0118E8"/>
</svg>
